<?xml version="1.0" encoding="UTF-8" standalone="no"?>
<!-- Created with Inkscape (http://www.inkscape.org/) -->

<svg
   xmlns:dc="http://purl.org/dc/elements/1.1/"
   xmlns:cc="http://creativecommons.org/ns#"
   xmlns:rdf="http://www.w3.org/1999/02/22-rdf-syntax-ns#"
   xmlns:svg="http://www.w3.org/2000/svg"
   xmlns="http://www.w3.org/2000/svg"
   xmlns:sodipodi="http://sodipodi.sourceforge.net/DTD/sodipodi-0.dtd"
   xmlns:inkscape="http://www.inkscape.org/namespaces/inkscape"
   width="16"
   height="20"
   id="svg2"
   version="1.1"
   inkscape:version="0.48.2 r9819"
   sodipodi:docname="person_icon.svg">
  <defs
     id="defs4" />
  <sodipodi:namedview
     id="base"
     pagecolor="#ffffff"
     bordercolor="#666666"
     borderopacity="1.0"
     inkscape:pageopacity="0.0"
     inkscape:pageshadow="2"
     inkscape:zoom="11.2"
     inkscape:cx="29.852659"
     inkscape:cy="12.546781"
     inkscape:document-units="px"
     inkscape:current-layer="layer1"
     showgrid="false"
     inkscape:window-width="1220"
     inkscape:window-height="756"
     inkscape:window-x="0"
     inkscape:window-y="0"
     inkscape:window-maximized="1" />
  <metadata
     id="metadata7">
    <rdf:RDF>
      <cc:Work
         rdf:about="">
        <dc:format>image/svg+xml</dc:format>
        <dc:type
           rdf:resource="http://purl.org/dc/dcmitype/StillImage" />
        <dc:title></dc:title>
      </cc:Work>
    </rdf:RDF>
  </metadata>
  <g
     inkscape:label="Layer 1"
     inkscape:groupmode="layer"
     id="layer1"
     transform="translate(0,-1032.3622)">
    <g
       id="g3021"
       transform="matrix(0.66666676,0,0,0.66666676,-121.18275,830.61217)"
       style="fill:#ffffff">
      <path
         transform="matrix(0.41846035,0,0,0.41846035,106.19632,193.43463)"
         d="m 231.42858,283.07648 c 0,12.22916 -9.9137,22.14285 -22.14286,22.14285 -12.22916,0 -22.14286,-9.91369 -22.14286,-22.14285 0,-12.22916 9.9137,-22.14286 22.14286,-22.14286 12.22916,0 22.14286,9.9137 22.14286,22.14286 z"
         sodipodi:ry="22.142857"
         sodipodi:rx="22.142857"
         sodipodi:cy="283.07648"
         sodipodi:cx="209.28572"
         id="path2985"
         style="fill:#ffffff;fill-opacity:1;stroke:none"
         sodipodi:type="arc" />
      <path
         inkscape:connector-curvature="0"
         id="path2987"
         d="m 187.17027,320.0058 c -3.14774,2.71377 -5.33522,7.30813 -5.70152,12.6192 l 24.6107,0 c -0.36617,-5.31124 -2.55376,-9.90549 -5.70152,-12.6192 -1.80093,1.46754 -4.09956,2.34077 -6.60383,2.34077 -2.50427,0 -4.8029,-0.87323 -6.60383,-2.34077 z"
         style="fill:#ffffff;fill-opacity:1;stroke:none" />
    </g>
  </g>
</svg>
